<?xml version="1.0" encoding="UTF-8"?>
<svg version="1.1" xmlns="http://www.w3.org/2000/svg" width="167" height="156">
<path d="M0 0 C55.11 0 110.22 0 167 0 C167 51.48 167 102.96 167 156 C111.89 156 56.78 156 0 156 C0 104.52 0 53.04 0 0 Z " fill="#1F2223" transform="translate(0,0)"/>
<path d="M0 0 C1.06863281 -0.04962891 2.13726562 -0.09925781 3.23828125 -0.15039062 C8.7972385 -0.22218528 12.58229452 0.07429845 16.9921875 3.6484375 C20.28218336 7.02275931 21.78514947 10.12318085 22.875 14.75 C23.1740625 15.93980469 23.473125 17.12960938 23.78125 18.35546875 C24.375 21.5625 24.375 21.5625 24.375 25.5625 C35.925 25.5625 47.475 25.5625 59.375 25.5625 C57.50714324 29.29821353 55.44720103 32.9361482 53.375 36.5625 C44.795 36.5625 36.215 36.5625 27.375 36.5625 C28.035 38.2125 28.695 39.8625 29.375 41.5625 C29.80897043 43.27564597 30.20218957 44.99952233 30.55859375 46.73046875 C30.76419922 47.70693359 30.96980469 48.68339844 31.18164062 49.68945312 C31.38982422 50.69943359 31.59800781 51.70941406 31.8125 52.75 C33.18188131 59.38955542 34.65701696 65.86690983 36.80883789 72.30200195 C37.375 74.5625 37.375 74.5625 37.375 79.5625 C72.025 79.0675 72.025 79.0675 107.375 78.5625 C109.80784589 71.28438695 109.80784589 71.28438695 112.09375 63.96875 C112.38636719 63.00066406 112.67898437 62.03257813 112.98046875 61.03515625 C113.42326172 59.56369141 113.42326172 59.56369141 113.875 58.0625 C115.94237807 51.19230476 118.07244438 44.35784709 120.375 37.5625 C118.065 37.5625 115.755 37.5625 113.375 37.5625 C114.365 33.6025 115.355 29.6425 116.375 25.5625 C122.46706361 25.14235768 125.49441433 25.49534528 130.375 29.5625 C132.75065067 33.12597601 132.88336062 35.4530942 132.375 39.5625 C131.51984309 43.22819411 130.40016416 46.79233562 129.25 50.375 C128.93232666 51.38240234 128.61465332 52.38980469 128.28735352 53.42773438 C127.63599331 55.48531123 126.98016287 57.54147841 126.31982422 59.59619141 C125.44852491 62.33166599 124.61138409 65.0748653 123.78515625 67.82421875 C123.29534933 69.40398063 122.80452608 70.98342789 122.3125 72.5625 C122.10415527 73.27253174 121.89581055 73.98256348 121.68115234 74.71411133 C119.6294441 81.10290707 116.39804219 85.74425488 110.60302734 89.22973633 C104.57828096 91.63218055 97.85468528 91.04618329 91.47265625 91.07421875 C90.02532952 91.09108362 88.57801728 91.10923628 87.13072205 91.12861633 C83.34146655 91.17592675 79.55226981 91.20585807 75.76281738 91.23205566 C71.88798423 91.26195752 68.01335314 91.30845452 64.13867188 91.35351562 C56.55088194 91.43933266 48.96307696 91.5067732 41.375 91.5625 C42.035 93.8725 42.695 96.1825 43.375 98.5625 C44.1974118 98.57058685 45.01982361 98.57867371 45.86715698 98.58700562 C53.60736822 98.66485881 61.34738842 98.75212089 69.08736992 98.85002708 C73.06683727 98.90003106 77.04627753 98.94636047 81.02587891 98.984375 C84.86446882 99.02117637 88.7028344 99.06752175 92.54123306 99.12056351 C94.00765178 99.13913497 95.47411863 99.15423272 96.94060898 99.16584396 C98.99042621 99.18265988 101.03972656 99.21168198 103.08935547 99.24365234 C104.25739716 99.25697601 105.42543884 99.27029968 106.62887573 99.2840271 C109.375 99.5625 109.375 99.5625 111.375 101.5625 C111.625 104.5625 111.625 104.5625 111.375 107.5625 C108.59257614 110.34492386 106.89921858 109.82795837 103.00097656 109.85302734 C102.34707947 109.85974457 101.69318237 109.86646179 101.01947021 109.87338257 C98.85144504 109.89242372 96.68372867 109.89629037 94.515625 109.8984375 C93.00827914 109.90486339 91.50093453 109.91159159 89.99359131 109.91860962 C86.82935701 109.9305992 83.66523198 109.93428895 80.50097656 109.93310547 C76.45451393 109.93290268 72.40875681 109.96015489 68.36246109 109.99464989 C65.24652927 110.01694145 62.13076626 110.02094226 59.01476288 110.01988602 C57.52367481 110.02224051 56.03258198 110.03105558 54.54157257 110.04655075 C52.44942185 110.06624917 50.35877896 110.06035872 48.26660156 110.04833984 C47.07794495 110.05118988 45.88928833 110.05403992 44.66461182 110.05697632 C39.69305098 109.30967869 36.6346806 106.82660053 33.1484375 103.328125 C30.90452141 99.8288021 29.94567168 96.30854972 29 92.3125 C28.79503906 91.48967529 28.59007812 90.66685059 28.37890625 89.8190918 C27.93425388 88.02267625 27.49603773 86.22465824 27.06347656 84.42529297 C26.35500594 81.47936159 25.6278176 78.53847498 24.8984375 75.59765625 C22.30284317 65.04157121 19.9049239 54.46735498 17.75 43.8125 C16.07280029 35.5271201 14.06864136 27.58107127 11.375 19.5625 C10.97026874 18.1483497 10.57284816 16.7320546 10.1875 15.3125 C9.64615484 12.67439753 9.64615484 12.67439753 8.375 11.5625 C6.91124517 11.43000736 5.44176971 11.35928005 3.97265625 11.31640625 C2.63750977 11.26709961 2.63750977 11.26709961 1.27539062 11.21679688 C-0.61251184 11.15572914 -2.50053977 11.09842113 -4.38867188 11.04492188 C-5.28005859 11.01076172 -6.17144531 10.97660156 -7.08984375 10.94140625 C-7.910896 10.9163501 -8.73194824 10.89129395 -9.57788086 10.86547852 C-11.625 10.5625 -11.625 10.5625 -13.625 8.5625 C-13.875 5.5625 -13.875 5.5625 -13.625 2.5625 C-10.07939603 -0.98310397 -4.8018889 0.06519684 0 0 Z " fill="#F4F9F5" transform="translate(29.625,11.4375)"/>
<path d="M0 0 C-7.98575744 35.64848737 -7.98575744 35.64848737 -19 48 C-19.66 48 -20.32 48 -21 48 C-21 48.66 -21 49.32 -21 50 C-21.66 50 -22.32 50 -23 50 C-23 50.66 -23 51.32 -23 52 C-32.58260335 57.73143888 -40.82456004 60.39422849 -52 61 C-51.52269189 55.17381053 -49.80741399 51.11335035 -46.9375 46.0625 C-46.56044922 45.37865234 -46.18339844 44.69480469 -45.79492188 43.99023438 C-44.87299058 42.32142204 -43.93784488 40.65992136 -43 39 C-42.34 39 -41.68 39 -41 39 C-40.71125 38.236875 -40.4225 37.47375 -40.125 36.6875 C-39 34 -39 34 -37 31 C-36.34 31 -35.68 31 -35 31 C-34.66355469 30.15695313 -34.66355469 30.15695313 -34.3203125 29.296875 C-32.61328077 26.32724583 -30.45193456 24.49655833 -27.875 22.25 C-26.96492188 21.45078125 -26.05484375 20.6515625 -25.1171875 19.828125 C-24.41851562 19.22484375 -23.71984375 18.6215625 -23 18 C-24.32 18.33 -25.64 18.66 -27 19 C-27 19.66 -27 20.32 -27 21 C-28.43415398 22.22157583 -29.92515516 23.37667537 -31.4375 24.5 C-43.15978009 33.70918196 -51.36460514 45.2572426 -57 59 C-57.66 59 -58.32 59 -59 59 C-59.47586664 43.13777857 -59.12349743 28.86409221 -47.73828125 16.5546875 C-34.51372073 3.97370842 -17.83600506 -0.08679321 0 0 Z " fill="#F98E17" transform="translate(143,24)"/>
<path d="M0 0 C3.01113945 1.27537931 3.80962762 2.31679384 6 5 C7.36425243 9.26232539 7.50942687 12.69813134 5.875 16.875 C2.68754843 20.48744511 0.32881035 21.85762746 -4.5 22.375 C-8.28541073 21.96942028 -10.05344689 21.37361222 -13 19 C-15.32380221 16.11528002 -15.96448964 14.24413376 -16.5 10.5625 C-15.83624442 5.83324149 -14.34318209 4.34318209 -11 1 C-7.49759552 -0.75120224 -3.82168145 -0.54503846 0 0 Z " fill="#F2F9F4" transform="translate(126,126)"/>
<path d="M0 0 C5.5 3 5.5 3 7 6 C7.16796875 8.0234375 7.16796875 8.0234375 7.1875 10.375 C7.20167969 11.14585937 7.21585938 11.91671875 7.23046875 12.7109375 C6.97201479 15.27795484 6.37954395 16.82815041 5 19 C0.62697813 21.84754912 -2.82075909 22.73989156 -8 22 C-10.96798207 20.20323955 -13.42401242 18.15197515 -15 15 C-15.16796875 12.94140625 -15.16796875 12.94140625 -15.1875 10.5625 C-15.20167969 9.78003906 -15.21585937 8.99757812 -15.23046875 8.19140625 C-15 6 -15 6 -13 3 C-12.34 3 -11.68 3 -11 3 C-11 2.34 -11 1.68 -11 1 C-7.27796101 -0.24067966 -3.86626692 -0.54711324 0 0 Z " fill="#F5FAF7" transform="translate(80,126)"/>
<path d="M0 0 C0.33 0.66 0.66 1.32 1 2 C0.01712992 4.00847365 -0.98377342 6.00819591 -2 8 C-2 8.99 -2 9.98 -2 11 C-2.33 11.99 -2.66 12.98 -3 14 C-3.2371875 14.73476562 -3.474375 15.46953125 -3.71875 16.2265625 C-3.9765625 17.01804687 -4.234375 17.80953125 -4.5 18.625 C-4.7578125 19.42164062 -5.015625 20.21828125 -5.28125 21.0390625 C-6 23 -6 23 -7 24 C-5.02 24.33 -3.04 24.66 -1 25 C-3.58926331 27.58926331 -5.02705279 27.37398043 -8.625 27.625 C-9.62789063 27.69976562 -10.63078125 27.77453125 -11.6640625 27.8515625 C-12.82035156 27.92503906 -12.82035156 27.92503906 -14 28 C-13.52269189 22.17381053 -11.80741399 18.11335035 -8.9375 13.0625 C-8.56044922 12.37865234 -8.18339844 11.69480469 -7.79492188 10.99023438 C-6.87299058 9.32142204 -5.93784488 7.65992136 -5 6 C-4.34 6 -3.68 6 -3 6 C-2.690625 5.195625 -2.38125 4.39125 -2.0625 3.5625 C-1 1 -1 1 0 0 Z " fill="#EC8F1C" transform="translate(105,57)"/>
<path d="M0 0 C0.84062397 3.09773244 1.08935201 5.78332751 1 9 C3.64 8.67 6.28 8.34 9 8 C8.60167969 8.71285156 8.20335938 9.42570312 7.79296875 10.16015625 C4.91878363 15.35606755 2.20578782 20.48553046 0 26 C-0.66 26 -1.32 26 -2 26 C-2.05449228 23.16640156 -2.09390733 20.33387515 -2.125 17.5 C-2.14175781 16.70851563 -2.15851563 15.91703125 -2.17578125 15.1015625 C-2.21989226 9.72001921 -1.50594058 5.17000073 0 0 Z " fill="#DC8D1F" transform="translate(86,57)"/>
<path d="M0 0 C2.31 0 4.62 0 7 0 C-0.50575572 33.50575572 -0.50575572 33.50575572 -6 39 C-5.25 31.25 -5.25 31.25 -3 29 C-0.77966462 23.93763532 0.36425628 19.59010628 0.69140625 14.078125 C1.04003549 11.73039394 1.93461113 10.10510571 3 8 C3 7.01 3 6.02 3 5 C2.34 5 1.68 5 1 5 C0.67 3.35 0.34 1.7 0 0 Z " fill="#E7911E" transform="translate(136,24)"/>
<path d="M0 0 C0.33 0.66 0.66 1.32 1 2 C0.24074219 2.60328125 -0.51851562 3.2065625 -1.30078125 3.828125 C-2.29464844 4.62734375 -3.28851563 5.4265625 -4.3125 6.25 C-5.29863281 7.03890625 -6.28476563 7.8278125 -7.30078125 8.640625 C-9.61014787 10.65923201 -11.18760171 12.56859799 -13 15 C-13.66 15 -14.32 15 -15 15 C-15.99 17.475 -15.99 17.475 -17 20 C-17.99 20 -18.98 20 -20 20 C-20 17 -20 17 -18.42578125 15.09765625 C-7.94049904 5 -7.94049904 5 -5 5 C-5 4.34 -5 3.68 -5 3 C-2.5 1.375 -2.5 1.375 0 0 Z " fill="#483A20" transform="translate(121,40)"/>
<path d="M0 0 C1.32348969 3.97046908 0.08041581 6.53073793 -1.25 10.3125 C-1.46785156 10.96412109 -1.68570313 11.61574219 -1.91015625 12.28710938 C-3.3079799 16.37022583 -4.98282663 20.17330346 -7 24 C-7.33 24 -7.66 24 -8 24 C-7.25 16.25 -7.25 16.25 -5 14 C-4.06280898 11.6314627 -3.19516685 9.28304801 -2.375 6.875 C-2.14554688 6.21628906 -1.91609375 5.55757812 -1.6796875 4.87890625 C-1.11463758 3.25438774 -0.55663723 1.62742029 0 0 Z " fill="#D38F24" transform="translate(138,39)"/>
<path d="M0 0 C2.64 0 5.28 0 8 0 C8 0.33 8 0.66 8 1 C5.69 1 3.38 1 1 1 C1.020625 2.11375 1.04125 3.2275 1.0625 4.375 C1 8 1 8 0 10 C1.65 10.33 3.3 10.66 5 11 C4.67 11.66 4.34 12.32 4 13 C1.69 12.67 -0.62 12.34 -3 12 C-2.01 8.04 -1.02 4.08 0 0 Z " fill="#A5BEAE" transform="translate(146,37)"/>
<path d="M0 0 C0.66 0.33 1.32 0.66 2 1 C0.76210371 4.71368887 -0.85224877 5.77354181 -4 8 C-4.66 8 -5.32 8 -6 8 C-6 8.99 -6 9.98 -6 11 C-6.66 11 -7.32 11 -8 11 C-8 11.99 -8 12.98 -8 14 C-8.66 14 -9.32 14 -10 14 C-8.38798165 8.2683792 -4.12110332 4.12110332 0 0 Z " fill="#DD8F23" transform="translate(99,37)"/>
<path d="M0 0 C0.89203125 0.00902344 1.7840625 0.01804687 2.703125 0.02734375 C3.37859375 0.03894531 4.0540625 0.05054687 4.75 0.0625 C2.4375 2.125 2.4375 2.125 -0.25 4.0625 C-1.24 3.7325 -2.23 3.4025 -3.25 3.0625 C-4.97795352 2.99447033 -6.70835365 2.97754355 -8.4375 3 C-9.33855469 3.00902344 -10.23960938 3.01804687 -11.16796875 3.02734375 C-12.19857422 3.04474609 -12.19857422 3.04474609 -13.25 3.0625 C-8.72285147 0.63724186 -5.12788671 -0.06747219 0 0 Z " fill="#CF8A1F" transform="translate(131.25,24.9375)"/>
<path d="M0 0 C0.66 0.33 1.32 0.66 2 1 C1.2884375 1.928125 1.2884375 1.928125 0.5625 2.875 C-1.58052838 7.16105676 -1.73342564 11.26600709 -2 16 C-4 14 -4 14 -4.265625 11.94140625 C-4.26046875 11.15636719 -4.2553125 10.37132812 -4.25 9.5625 C-4.25515625 8.78003906 -4.2603125 7.99757812 -4.265625 7.19140625 C-4 5 -4 5 -2 2 C-1.34 2 -0.68 2 0 2 C0 1.34 0 0.68 0 0 Z " fill="#D1E7DA" transform="translate(69,127)"/>
<path d="M0 0 C1.23593891 3.70781672 0.5678132 4.67510253 -0.9375 8.1875 C-1.31777344 9.08855469 -1.69804687 9.98960938 -2.08984375 10.91796875 C-2.54037109 11.94857422 -2.54037109 11.94857422 -3 13 C-3.93045933 10.44855176 -4.08564091 9.25993522 -3.22265625 6.640625 C-2.83980469 5.85171875 -2.45695313 5.0628125 -2.0625 4.25 C-1.68222656 3.45078125 -1.30195313 2.6515625 -0.91015625 1.828125 C-0.60980469 1.22484375 -0.30945313 0.6215625 0 0 Z " fill="#D8ECDE" transform="translate(151,80)"/>
<path d="M0 0 C0.33 0 0.66 0 1 0 C1 1.65 1 3.3 1 5 C3.97 5 6.94 5 10 5 C10 5.33 10 5.66 10 6 C6.37 6.33 2.74 6.66 -1 7 C-0.67 4.69 -0.34 2.38 0 0 Z " fill="#B18029" transform="translate(92,78)"/>
<path d="M0 0 C0.33 0 0.66 0 1 0 C1.75 2.625 1.75 2.625 2 6 C0.0625 9.375 0.0625 9.375 -2 12 C-3.12377697 8.69564916 -2.89554742 6.9493138 -1.5625 3.75 C-1.27503906 3.04359375 -0.98757812 2.3371875 -0.69140625 1.609375 C-0.46324219 1.07828125 -0.23507813 0.5471875 0 0 Z " fill="#D8EADD" transform="translate(150,50)"/>
<path d="M0 0 C2.42130331 2.42130331 2.52840504 3.80111377 3.125 7.125 C3.29257812 8.03507812 3.46015625 8.94515625 3.6328125 9.8828125 C3.81457031 10.93082031 3.81457031 10.93082031 4 12 C3.34 12 2.68 12 2 12 C0.40861915 7.82262526 -0.21278058 4.46839215 0 0 Z " fill="#D9EDDE" transform="translate(51,26)"/>
<path d="M0 0 C0.66 0.33 1.32 0.66 2 1 C0.68 1.33 -0.64 1.66 -2 2 C-2 2.66 -2 3.32 -2 4 C-5 6 -5 6 -7.1875 5.625 C-7.785625 5.41875 -8.38375 5.2125 -9 5 C-7.54735962 4.1361871 -6.0876837 3.28419546 -4.625 2.4375 C-3.40683594 1.72400391 -3.40683594 1.72400391 -2.1640625 0.99609375 C-1.44992188 0.66738281 -0.73578125 0.33867187 0 0 Z " fill="#C58B23" transform="translate(111,30)"/>
<path d="M0 0 C0.33 0.99 0.66 1.98 1 3 C0.67 3.66 0.34 4.32 0 5 C-1.9375 5.5625 -1.9375 5.5625 -4 6 C-4.99 6.495 -4.99 6.495 -6 7 C-4.60667426 3.63279613 -3.0210714 2.0140476 0 0 Z " fill="#2F2F24" transform="translate(102,58)"/>
</svg>
