<?xml version="1.0" encoding="UTF-8"?>
<svg version="1.1" xmlns="http://www.w3.org/2000/svg" width="1024" height="295">
<path d="M0 0 C337.92 0 675.84 0 1024 0 C1024 97.35 1024 194.7 1024 295 C686.08 295 348.16 295 0 295 C0 197.65 0 100.3 0 0 Z " fill="#FEFEFE" transform="translate(0,0)"/>
<path d="M0 0 C0.88444794 -0.00570007 1.76889587 -0.01140015 2.68014526 -0.01727295 C4.554655 -0.02672131 6.42918134 -0.03325628 8.30371094 -0.03710938 C11.14808927 -0.04676771 13.99173019 -0.0777727 16.8359375 -0.109375 C18.66145407 -0.11591024 20.48697578 -0.12115866 22.3125 -0.125 C23.15346222 -0.1373468 23.99442444 -0.1496936 24.86087036 -0.16241455 C33.04332959 -0.1321163 40.14751796 1.64873689 46.3046875 7.265625 C47.48804688 8.30396484 47.48804688 8.30396484 48.6953125 9.36328125 C55.55429037 17.61903772 57.63602533 27.47482088 59.8671875 37.703125 C60.18050392 39.0861955 60.49495017 40.46901055 60.81054688 41.8515625 C63.0546875 51.78165272 63.0546875 51.78165272 63.0546875 54.203125 C85.1646875 54.203125 107.2746875 54.203125 130.0546875 54.203125 C126.38802083 61.53645833 122.72135417 68.86979167 119.0546875 76.203125 C102.2246875 76.203125 85.3946875 76.203125 68.0546875 76.203125 C68.9621875 80.039375 69.8696875 83.875625 70.8046875 87.828125 C74.18741538 102.25888801 77.43859133 116.71915137 80.66540527 131.18548584 C81.21730113 133.65875014 81.77028253 136.13177245 82.32434082 138.60455322 C83.11145404 142.11975737 83.89424769 145.63589543 84.67578125 149.15234375 C85.03623787 150.75832176 85.03623787 150.75832176 85.40397644 152.39674377 C85.62185318 153.38174362 85.83972992 154.36674347 86.06420898 155.3815918 C86.25627426 156.24374802 86.44833954 157.10590424 86.64622498 157.9941864 C87.0546875 160.203125 87.0546875 160.203125 87.0546875 163.203125 C105.22217305 163.14260114 123.38950315 163.06510884 141.55682659 162.96741009 C149.99221739 162.92244265 158.42756588 162.88303019 166.86303711 162.85668945 C174.21531513 162.83371702 181.56745937 162.80032752 188.9196313 162.75442344 C192.81264375 162.73048093 196.70552362 162.71175894 200.59860802 162.70551109 C204.26354263 162.69946481 207.92813797 162.6794819 211.59294701 162.64884949 C213.57792592 162.63587438 215.56298406 162.63764045 217.54800415 162.6398468 C218.73285904 162.62730865 219.91771393 162.61477051 221.13847351 162.60185242 C222.16627269 162.59724345 223.19407187 162.59263449 224.25301647 162.58788586 C228.56366241 161.9958935 231.17358967 160.09461361 234.18701172 157.0456543 C236.56869833 153.42082068 237.71507309 149.85920523 238.9375 145.72265625 C239.32163559 144.47164375 239.32163559 144.47164375 239.71353149 143.19535828 C240.54656292 140.4719863 241.3632871 137.74402393 242.1796875 135.015625 C242.75208143 133.13255445 243.32533155 131.24974395 243.89941406 129.3671875 C248.04880561 115.71918354 252.10039288 102.04026665 256.07080078 88.33911133 C256.26692963 87.66411087 256.46305847 86.98911041 256.66513062 86.2936554 C257.18830273 84.49118998 257.70899548 82.68800543 258.22949219 80.88476562 C259.0546875 78.203125 259.0546875 78.203125 260.0546875 76.203125 C255.7646875 76.203125 251.4746875 76.203125 247.0546875 76.203125 C247.68784541 71.07787834 248.73629406 66.23781729 250.1171875 61.265625 C250.30345703 60.58177734 250.48972656 59.89792969 250.68164062 59.19335938 C251.13557807 57.52892207 251.59459666 55.86587188 252.0546875 54.203125 C261.88035411 53.83517355 268.06441751 53.77842991 276.2421875 59.390625 C280.62002461 63.76846211 282.92393885 67.58621628 283.23608398 73.83374023 C283.19153157 78.32791699 282.16447429 82.20693272 280.81640625 86.46875 C280.57994888 87.24792786 280.34349152 88.02710571 280.09986877 88.82989502 C279.32483746 91.37444589 278.5340567 93.91376849 277.7421875 96.453125 C277.19477433 98.23215634 276.64823686 100.01145736 276.10253906 101.79101562 C275.26126719 104.53228215 274.41863967 107.27308524 273.57119751 110.01245117 C271.69307032 116.08772124 269.87459461 122.17797263 268.08984375 128.28125 C267.38624143 130.6641209 266.68095877 133.04648568 265.97476196 135.42858887 C265.5368055 136.9152114 265.10347771 138.40320745 264.67538452 139.8927002 C260.06092436 155.91065335 254.07425642 173.16803682 239.14453125 182.1953125 C234.4455437 184.46136631 230.26482909 185.45305292 225.05618286 185.44363403 C223.87836746 185.44638336 222.70055206 185.44913269 221.48704529 185.45196533 C219.56977379 185.4411795 219.56977379 185.4411795 217.61376953 185.43017578 C216.24344389 185.42961116 214.87311765 185.42992923 213.50279236 185.43106079 C209.79453484 185.4316333 206.08640739 185.41989553 202.37818003 185.40591288 C198.49845449 185.39338852 194.61872579 185.39223367 190.73898315 185.38986206 C183.39742428 185.3836523 176.05592514 185.36724831 168.71439254 185.34716308 C160.35408231 185.32478839 151.99376918 185.3138067 143.63343644 185.30377221 C126.4404856 185.28288163 109.24759287 185.24771547 92.0546875 185.203125 C92.76444989 187.29314872 93.49835861 189.37498151 94.2421875 191.453125 C94.64824219 192.61328125 95.05429688 193.7734375 95.47265625 194.96875 C97.49536776 199.1040713 99.97742596 201.16449423 104.0546875 203.203125 C105.76664728 203.29748508 107.48229536 203.3277727 109.19685364 203.32769775 C110.28621719 203.33026077 111.37558075 203.33282379 112.49795532 203.33546448 C113.69850555 203.33336472 114.89905579 203.33126495 116.13598633 203.32910156 C118.07047331 203.33196921 120.0049603 203.33484475 121.93944681 203.33801699 C124.02256381 203.3407003 126.10567265 203.341142 128.18879128 203.34122467 C132.52960127 203.34236391 136.870326 203.35519438 141.21110535 203.37078857 C141.94339837 203.37336143 142.6756914 203.37593428 143.43017513 203.3785851 C144.92778848 203.38385181 146.42540177 203.38913729 147.923015 203.39444113 C158.03047687 203.42956279 168.13783338 203.45610308 178.24536133 203.45361328 C185.06080242 203.45202466 191.87595343 203.46806141 198.69130152 203.50431991 C202.29824935 203.52278307 205.90471287 203.53212035 209.51169777 203.51984406 C213.5366014 203.50627859 217.56037759 203.53133597 221.58520508 203.55957031 C222.77968262 203.54937363 223.97416016 203.53917694 225.20483398 203.52867126 C234.19436854 203.6420192 234.19436854 203.6420192 237.27153015 206.61834717 C239.9214976 210.4596106 240.50684197 212.5007185 240.0546875 217.203125 C237.91450659 221.1777467 236.27639891 223.57981419 232.0546875 225.203125 C229.54455376 225.45760059 229.54455376 225.45760059 226.66769409 225.46382141 C225.57439285 225.47090622 224.48109161 225.47799103 223.35466003 225.48529053 C222.15980484 225.48281311 220.96494965 225.48033569 219.73388672 225.4777832 C217.84052834 225.4854496 217.84052834 225.4854496 215.90892029 225.49327087 C212.44782284 225.50666038 208.98683461 225.50723913 205.5257163 225.50470757 C202.63104188 225.50363684 199.73638945 225.50852436 196.84171975 225.513313 C190.00546568 225.52441013 183.16926653 225.52484583 176.33300781 225.51879883 C169.29847195 225.51277155 162.26413674 225.52503771 155.22963512 225.5463689 C149.17847992 225.56403846 143.12738825 225.56997746 137.07620823 225.56673115 C133.46754768 225.56492509 129.85902994 225.56748538 126.25039291 225.58144569 C122.2174169 225.59646274 118.1848429 225.58700736 114.15185547 225.57543945 C112.96914566 225.58308319 111.78643585 225.59072693 110.56788635 225.59860229 C99.17701441 225.52663536 90.29943883 223.35292717 82.0546875 215.203125 C75.02169852 206.76040549 71.86731987 196.51078315 69.4609375 185.95556641 C69.2330101 184.98426662 69.0050827 184.01296684 68.77024841 183.01223373 C68.02366715 179.81986797 67.28888046 176.6249232 66.5546875 173.4296875 C66.0271853 171.15897222 65.49926356 168.88835437 64.97094727 166.61782837 C59.43559061 142.75997428 54.10648776 118.85527883 48.80194092 94.94525146 C46.7940416 85.89765026 44.78059986 76.85128087 42.76712036 67.8049202 C42.07921786 64.71185993 41.39285778 61.61846092 40.70678711 58.5249939 C39.68853876 53.93564681 38.65854152 49.34903825 37.625 44.76311493 C37.05700795 42.21354092 36.50768176 39.66046697 35.9609375 37.10626221 C35.61754169 35.54683765 35.27381105 33.98748678 34.9296875 32.42822266 C34.78321777 31.71997534 34.63674805 31.01172802 34.48583984 30.28201866 C33.53245637 25.96726192 33.53245637 25.96726192 30.0546875 23.203125 C28.13372825 22.91151169 28.13372825 22.91151169 26.02978516 22.96362305 C25.22529938 22.95989182 24.4208136 22.95616058 23.59194946 22.95231628 C22.29346573 22.95851738 22.29346573 22.95851738 20.96875 22.96484375 C19.1328051 22.94942442 17.29686746 22.93312081 15.4609375 22.91601562 C12.56852221 22.89955912 9.67663796 22.89063246 6.78417969 22.89770508 C3.99092601 22.90032584 1.19928787 22.87219972 -1.59375 22.83984375 C-2.88616104 22.85515388 -2.88616104 22.85515388 -4.2046814 22.87077332 C-8.63495686 22.79871372 -10.392302 22.64502409 -13.96728516 19.78833008 C-16.72362002 16.18590724 -17.34266046 13.90693081 -17.30078125 9.30859375 C-16.66578023 5.54743385 -14.66908931 3.80021452 -11.9453125 1.203125 C-7.97168978 -0.12141591 -4.14437094 0.02064578 0 0 Z " fill="#139435" transform="translate(81.9453125,3.796875)"/>
<path d="M0 0 C0.71800781 0.00451172 1.43601562 0.00902344 2.17578125 0.01367188 C3.90889208 0.02522595 5.6419587 0.04314842 7.375 0.0625 C2.95453385 36.24052558 -8.03859248 79.35949985 -36.93359375 104.00390625 C-55.6951697 118.35419729 -76.31646665 124.12466101 -99.625 123.0625 C-97.63281102 116.3998015 -94.99047506 110.3337095 -91.75 104.1875 C-91.27240234 103.28128906 -90.79480469 102.37507813 -90.30273438 101.44140625 C-82.39097719 86.76126841 -72.7173822 73.47908907 -61.625 61.0625 C-60.94824219 60.27617188 -60.27148438 59.48984375 -59.57421875 58.6796875 C-51.7342138 49.69793426 -43.09136358 41.44608476 -34.625 33.0625 C-34.295 32.7325 -33.965 32.4025 -33.625 32.0625 C-52.53608243 44.97098924 -69.50499232 59.9798614 -83.625 78.0625 C-84.40230469 79.02285156 -85.17960937 79.98320313 -85.98046875 80.97265625 C-95.42039887 92.84385614 -103.38498859 105.74926405 -110.625 119.0625 C-111.285 118.7325 -111.945 118.4025 -112.625 118.0625 C-117.76631676 93.47645961 -111.78607605 66.07776659 -98.625 45.0625 C-80.02191272 18.84905883 -52.11283021 6.83952209 -21.34423828 1.48461914 C-14.22200139 0.37900345 -7.20180424 -0.08882681 0 0 Z " fill="#FD981F" transform="translate(317.625,28.9375)"/>
<path d="M0 0 C6.27 0 12.54 0 19 0 C20.75256958 5.25770875 22.41971446 10.29634582 23.80932617 15.62133789 C24.12943161 16.84192398 24.44953705 18.06251007 24.77934265 19.32008362 C25.11728351 20.62092415 25.45515736 21.92178209 25.79296875 23.22265625 C26.14714179 24.57749701 26.50158264 25.93226779 26.85627747 27.28697205 C27.78117654 30.82237826 28.70247652 34.35871235 29.62298584 37.89526367 C30.56611268 41.51603864 31.51270152 45.1359082 32.45898438 48.75585938 C34.30934595 55.83636653 36.15589965 62.91785923 38 70 C38.24834091 69.15253204 38.49668182 68.30506409 38.75254822 67.43191528 C41.09021407 59.45583055 43.42969057 51.48027968 45.77121639 43.50532722 C46.97502904 39.40504987 48.17813388 35.30456756 49.37963867 31.20361328 C50.53859923 27.24796568 51.69939606 23.29286128 52.86148262 19.33813095 C53.30510837 17.82721132 53.74806559 16.31609525 54.19035149 14.80478287 C54.80865892 12.69241488 55.42931291 10.58075001 56.05053711 8.46923828 C56.40361435 7.26566681 56.75669159 6.06209534 57.12046814 4.822052 C58 2 58 2 59 0 C63.29 0 67.58 0 72 0 C76.34104352 13.51720853 80.45333065 27.09389219 84.43408203 40.72143555 C85.38951375 43.98710809 86.35293692 47.25036286 87.31640625 50.51367188 C87.9275709 52.60141983 88.53826617 54.68930527 89.1484375 56.77734375 C89.43584808 57.74703598 89.72325867 58.71672821 90.01937866 59.71580505 C90.28030304 60.61517288 90.54122742 61.51454071 90.81005859 62.44116211 C91.15597549 63.62094887 91.15597549 63.62094887 91.50888062 64.8245697 C92 67 92 67 92 71 C92.66 71 93.32 71 94 71 C94.09224854 69.9594043 94.18449707 68.91880859 94.27954102 67.84667969 C95.07006371 61.57095536 96.86056265 55.54192224 98.52734375 49.453125 C98.8802 48.15144243 99.23269725 46.84966249 99.58485413 45.54779053 C100.32027722 42.83380162 101.05947193 40.12087793 101.80151367 37.40869141 C102.75076428 33.93824587 103.69128848 30.46550713 104.62912655 26.99196243 C105.3542948 24.30934365 106.083632 21.62787236 106.81427193 18.9467392 C107.33151478 17.04622823 107.84558554 15.14485486 108.35960388 13.24346924 C108.67655716 12.08836853 108.99351044 10.93326782 109.32006836 9.74316406 C109.59684921 8.72804749 109.87363007 7.71293091 110.15879822 6.66705322 C111 4 111 4 113 0 C119.27 0 125.54 0 132 0 C131.34483611 4.58614725 130.68872371 8.55506523 129.48461914 12.9465332 C129.02214279 14.64464394 129.02214279 14.64464394 128.55032349 16.37705994 C128.2153183 17.58938797 127.88031311 18.801716 127.53515625 20.05078125 C127.18198196 21.33968542 126.82911388 22.62867352 126.47653198 23.91773987 C125.53756526 27.34545902 124.59277773 30.77154684 123.64640427 34.19722748 C123.06271127 36.31173466 122.48068677 38.42669409 121.89920044 40.54180908 C116.15601724 61.42795854 110.26981513 82.26493571 104 103 C97.73 103 91.46 103 85 103 C83.2772997 98.40613252 81.61882564 93.97984689 80.19067383 89.31835938 C79.87056839 88.27788452 79.55046295 87.23740967 79.22065735 86.16540527 C78.88616074 85.06925903 78.55166412 83.97311279 78.20703125 82.84375 C77.85613937 81.70087524 77.5052475 80.55800049 77.14372253 79.38049316 C76.03099009 75.75437022 74.92169544 72.12720626 73.8125 68.5 C73.05556584 66.0311803 72.29840677 63.56242954 71.54101562 61.09375 C69.69140641 55.06329558 67.84461347 49.03198429 66 43 C64.05936335 45.91095497 63.18523899 48.1570987 62.13647461 51.46533203 C61.77947983 52.58303986 61.42248505 53.70074768 61.05467224 54.85232544 C60.67440384 56.05863617 60.29413544 57.2649469 59.90234375 58.5078125 C59.30000831 60.39635728 58.69766972 62.28490106 58.0951395 64.17338371 C57.25287046 66.81708429 56.41481171 69.46211142 55.57684326 72.10717773 C54.10735006 76.74502454 52.6348031 81.38189317 51.15687561 86.01705933 C50.37025769 88.48557011 49.5866936 90.95505638 48.80638123 93.42556763 C48.4525386 94.53697113 48.09869598 95.64837463 47.73413086 96.79345703 C47.42261581 97.77702179 47.11110077 98.76058655 46.79014587 99.7739563 C46 102 46 102 45 103 C43.65732587 103.08631874 42.31025678 103.10706473 40.96484375 103.09765625 C40.15595703 103.09443359 39.34707031 103.09121094 38.51367188 103.08789062 C37.66353516 103.07951172 36.81339844 103.07113281 35.9375 103.0625 C35.08349609 103.05798828 34.22949219 103.05347656 33.34960938 103.04882812 C31.23304337 103.03700373 29.11651315 103.01906769 27 103 C21.28162542 82.60516478 15.6502877 62.18594161 10.07588768 41.75130367 C9.16812376 38.42365339 8.2586007 35.09651029 7.34448242 31.77059937 C6.30540914 27.98939419 5.27539549 24.20575243 4.24609375 20.421875 C3.93296738 19.28669937 3.619841 18.15152374 3.29722595 16.98194885 C3.0089241 15.91637253 2.72062225 14.8507962 2.42358398 13.75292969 C2.17172836 12.83114929 1.91987274 11.9093689 1.66038513 10.95965576 C0.85573163 7.35343077 0.45829661 3.66637288 0 0 Z " fill="#139335" transform="translate(703,119)"/>
<path d="M0 0 C6.6 0 13.2 0 20 0 C20.495 18.315 20.495 18.315 21 37 C23.31 35.02 25.62 33.04 28 31 C34.74585439 27.29996858 44.75921104 27.83554326 52.05859375 29.83984375 C59.4056659 33.16112294 63.24183189 38.1977895 66.56005859 45.3737793 C68.61644675 50.96069654 68.37447307 56.48993719 68.29296875 62.375 C68.28872391 63.5400708 68.28447906 64.7051416 68.28010559 65.90551758 C68.2633965 69.60391965 68.22575761 73.30176434 68.1875 77 C68.17244317 79.51691918 68.15875652 82.03384695 68.14648438 84.55078125 C68.11351826 90.70073355 68.06178879 96.85027247 68 103 C61.73 103 55.46 103 49 103 C48.98598145 100.91933228 48.98598145 100.91933228 48.97167969 98.79663086 C48.93169646 93.63208337 48.86591367 88.46812634 48.79248047 83.30395508 C48.76431928 81.07226162 48.7430807 78.84046932 48.72900391 76.60864258 C48.70750772 73.39353001 48.66082137 70.1795998 48.609375 66.96484375 C48.60814636 65.97290512 48.60691772 64.98096649 48.60565186 63.95896912 C48.47647445 57.79807128 47.63940083 54.02763025 44 49 C40.07148687 46.49011661 35.54724197 46.30971659 31 47 C27.23010911 48.31908707 24.59377991 50.11572094 22.33276367 53.48291016 C20.52265327 58.25969169 20.52149465 62.57942945 20.48828125 67.6484375 C20.47033005 68.66096588 20.45237885 69.67349426 20.43388367 70.71670532 C20.37990042 73.93609511 20.34592293 77.15533763 20.3125 80.375 C20.2793164 82.56382252 20.24482578 84.75262564 20.20898438 86.94140625 C20.12173114 92.29429064 20.06155874 97.64651225 20 103 C13.4 103 6.8 103 0 103 C0 69.01 0 35.02 0 0 Z " fill="#149435" transform="translate(632,119)"/>
<path d="M0 0 C7.90515765 5.53361035 12.95792027 12.496306 15 22 C15.08778022 23.35595597 15.13057475 24.71542629 15.1328125 26.07421875 C15.13410156 26.82380859 15.13539063 27.57339844 15.13671875 28.34570312 C15.13285156 29.11849609 15.12898437 29.89128906 15.125 30.6875 C15.12886719 31.47189453 15.13273438 32.25628906 15.13671875 33.06445312 C15.12667749 38.87332251 15.12667749 38.87332251 14 40 C12.43452952 40.09326716 10.86487228 40.11745582 9.29663086 40.11352539 C8.29566879 40.11344986 7.29470673 40.11337433 6.26341248 40.11329651 C5.1748848 40.10813522 4.08635712 40.10297394 2.96484375 40.09765625 C1.85645645 40.0962413 0.74806915 40.09482635 -0.39390564 40.09336853 C-3.95013069 40.08775033 -7.50629383 40.07519475 -11.0625 40.0625 C-13.46679597 40.05748734 -15.87109292 40.05292403 -18.27539062 40.04882812 C-24.18361504 40.03777499 -30.0918031 40.02101917 -36 40 C-35.25580035 41.618997 -34.49630622 43.23096918 -33.73046875 44.83984375 C-33.30918701 45.73823975 -32.88790527 46.63663574 -32.45385742 47.56225586 C-30.24211667 51.27077498 -27.91066641 52.30291835 -24 54 C-23.01 54.495 -23.01 54.495 -22 55 C-14.27395977 55.80562129 -8.8103929 54.53289132 -2 51 C-1.01 50.67 -0.02 50.34 1 50 C1 49.34 1 48.68 1 48 C1.66 48 2.32 48 3 48 C4.44074715 49.782129 5.80510649 51.62660276 7.125 53.5 C7.84945312 54.5209375 8.57390625 55.541875 9.3203125 56.59375 C9.87460937 57.3878125 10.42890625 58.181875 11 59 C8.6074119 64.53884145 4.18243488 67.42052586 -1.1171875 70.05078125 C-10.97272336 73.64856337 -23.7746587 73.70960438 -33.5625 70 C-44.53914556 64.58769277 -50.81748015 56.62752198 -54.8125 45.25 C-57.62264886 34.81691859 -56.51485814 24.75882381 -52 15 C-47.3125814 6.90102822 -39.98864384 -0.16195553 -31.1015625 -3.33984375 C-21.01483007 -5.48676791 -8.91685811 -5.67728016 0 0 Z " fill="#129334" transform="translate(546,152)"/>
<path d="M0 0 C4.94879881 2.9664873 8.4134117 6.40794144 11.125 11.5 C11.63836914 12.44762207 12.15173828 13.39524414 12.68066406 14.37158203 C14.91254652 19.65671211 14.49575673 25.13469237 14.41796875 30.77734375 C14.41372391 31.9438295 14.40947906 33.11031525 14.40510559 34.31214905 C14.38837522 38.02083874 14.35073221 41.72897582 14.3125 45.4375 C14.29744593 47.9589765 14.28375879 50.48046156 14.27148438 53.00195312 C14.23848997 59.16818017 14.18674553 65.33399653 14.125 71.5 C8.515 71.5 2.905 71.5 -2.875 71.5 C-3.535 69.52 -4.195 67.54 -4.875 65.5 C-5.32230469 65.90992188 -5.76960937 66.31984375 -6.23046875 66.7421875 C-6.83503906 67.28101563 -7.43960938 67.81984375 -8.0625 68.375 C-8.65417969 68.90867187 -9.24585938 69.44234375 -9.85546875 69.9921875 C-16.56104194 74.99866961 -24.9314198 74.12208761 -32.875 73.5 C-39.61591694 71.88626534 -43.9814605 67.02213912 -47.875 61.5 C-50.64345852 55.96308295 -50.97537191 49.2294042 -49.22265625 43.2890625 C-46.31939465 36.78475969 -41.79654774 32.92711549 -35.484375 29.84375 C-29.60851843 27.73775934 -23.53320445 28.18053848 -17.375 28.3125 C-15.56902344 28.33280273 -15.56902344 28.33280273 -13.7265625 28.35351562 C-10.77557027 28.38864648 -7.82552588 28.43784004 -4.875 28.5 C-5.15968292 27.05043144 -5.45462906 25.60287591 -5.75390625 24.15625 C-5.91705322 23.34994141 -6.0802002 22.54363281 -6.24829102 21.71289062 C-7.08986588 18.74131503 -8.39762696 17.30172585 -10.875 15.5 C-16.61051592 13.58816136 -23.63444255 13.4431876 -29.40234375 15.32421875 C-32.38317354 16.81740909 -35.10363586 18.6524239 -37.875 20.5 C-40.515 16.87 -43.155 13.24 -45.875 9.5 C-42.19717999 4.90272499 -40.81875785 3.6073457 -35.8125 1.25 C-34.24822266 0.49976563 -34.24822266 0.49976563 -32.65234375 -0.265625 C-23.11018443 -4.5065847 -9.44981308 -4.3972018 0 0 Z " fill="#129333" transform="translate(881.875,150.5)"/>
<path d="M0 0 C20.13 0 40.26 0 61 0 C61 5.94 61 11.88 61 18 C47.47 18 33.94 18 20 18 C20 26.58 20 35.16 20 44 C31.88 44 43.76 44 56 44 C56 49.94 56 55.88 56 62 C44.12 62 32.24 62 20 62 C20 75.53 20 89.06 20 103 C13.4 103 6.8 103 0 103 C0 69.01 0 35.02 0 0 Z " fill="#139335" transform="translate(379,119)"/>
<path d="M0 0 C7.26 0 14.52 0 22 0 C23.06927734 2.73603516 23.06927734 2.73603516 24.16015625 5.52734375 C29.32895833 18.73158741 34.52465143 31.91896245 40 45 C41.66407005 42.50389492 42.59264239 40.67377909 43.58813477 37.91162109 C44.03353355 36.68552628 44.03353355 36.68552628 44.4879303 35.43466187 C44.80257736 34.55645782 45.11722443 33.67825378 45.44140625 32.7734375 C45.76914536 31.87001617 46.09688446 30.96659485 46.43455505 30.03579712 C47.48100233 27.15022309 48.52219344 24.26279304 49.5625 21.375 C50.60679678 18.48022373 51.65225904 15.58589211 52.70115662 12.69277954 C53.35390623 10.89201258 54.00392532 9.09025317 54.65101624 7.28744507 C54.9447966 6.47635284 55.23857697 5.66526062 55.54125977 4.82958984 C55.92859032 3.75395279 55.92859032 3.75395279 56.32374573 2.65658569 C57 1 57 1 58 0 C59.56172745 -0.08685603 61.12729344 -0.10702219 62.69140625 -0.09765625 C63.54162354 -0.09515869 64.39184082 -0.09266113 65.26782227 -0.09008789 C66.89868774 -0.07643188 66.89868774 -0.07643188 68.5625 -0.0625 C70.42439572 -0.05101163 72.28629371 -0.03988539 74.14819336 -0.02905273 C75.76546224 -0.01936849 77.38273112 -0.00968424 79 0 C72.26852566 17.61216513 65.40445516 35.16718682 58.4375 52.6875 C56.66458789 57.14943143 54.89270178 61.61176941 53.12109375 66.07421875 C52.69420258 67.14832001 52.2673114 68.22242126 51.82748413 69.32907104 C49.66006011 74.78880695 47.50745445 80.25379396 45.37939453 85.72900391 C44.96351578 86.79818558 44.54763702 87.86736725 44.11915588 88.96894836 C43.3292722 91.00283929 42.54168539 93.03762413 41.75669861 95.07341003 C41.40781082 95.97191177 41.05892303 96.87041351 40.69946289 97.79614258 C40.39408096 98.5870076 40.08869904 99.37787262 39.77406311 100.19270325 C39 102 39 102 38 103 C36.58429877 103.08651611 35.164405 103.10704904 33.74609375 103.09765625 C32.89208984 103.09443359 32.03808594 103.09121094 31.15820312 103.08789062 C30.26037109 103.07951172 29.36253906 103.07113281 28.4375 103.0625 C27.53580078 103.05798828 26.63410156 103.05347656 25.70507812 103.04882812 C23.46998686 103.03700225 21.23502563 103.0205222 19 103 C21.2032137 95.06694487 24.11474693 87.60516331 27.390625 80.06054688 C27.74125 79.21943359 28.091875 78.37832031 28.453125 77.51171875 C28.77442383 76.76365967 29.09572266 76.01560059 29.42675781 75.24487305 C30.84397584 69.6949072 27.57459743 64.39819585 25.3515625 59.421875 C24.79828278 58.16731255 24.79828278 58.16731255 24.23382568 56.8874054 C23.03544747 54.17289338 21.83017158 51.46150178 20.625 48.75 C19.80367219 46.89142747 18.98287291 45.03262129 18.16259766 43.17358398 C14.84988193 35.67041707 11.52183408 28.17406608 8.19265747 20.67819214 C7.39482241 18.88064536 6.598499 17.08242787 5.80224609 15.28417969 C4.87136584 13.18293169 3.93695959 11.08324116 2.99853516 8.98535156 C2.59425293 8.07366211 2.1899707 7.16197266 1.7734375 6.22265625 C1.42716309 5.44672119 1.08088867 4.67078613 0.72412109 3.87133789 C0 2 0 2 0 0 Z " fill="#129334" transform="translate(899,149)"/>
<path d="M0 0 C0.79365967 0.00161133 1.58731934 0.00322266 2.4050293 0.00488281 C11.11415292 0.18563988 18.88114507 2.16541593 25.3125 8.375 C23.67071735 13.15109498 21.04703298 17.16882904 18.3125 21.375 C15.5154388 20.2731274 12.8596107 19.13949756 10.1875 17.75 C5.51081617 15.73099112 0.30342107 15.56437269 -4.6875 16.375 C-6.67637065 17.45715036 -6.67637065 17.45715036 -7.6875 19.375 C-7.78442963 21.95360316 -7.78442963 21.95360316 -6.6875 24.375 C-4.85865614 25.89307535 -4.85865614 25.89307535 -2.4375 26.875 C-1.53773438 27.28878906 -0.63796875 27.70257813 0.2890625 28.12890625 C3.47759844 29.44304445 6.69778515 30.63064598 9.9375 31.8125 C17.27317079 34.58605751 24.0922537 38.07472168 27.68359375 45.40234375 C29.61187619 51.45068308 28.85627087 56.89073684 26.3125 62.625 C22.43316159 69.5859537 16.83848219 73.11764631 9.49145508 75.76196289 C5.84900378 76.78674667 2.32907956 76.90640176 -1.4375 76.875 C-2.2202832 76.87072998 -3.00306641 76.86645996 -3.80957031 76.86206055 C-13.5656964 76.578592 -21.68182624 73.18607171 -28.6875 66.375 C-27.5657037 64.5813257 -26.43995517 62.7901227 -25.3125 61 C-24.68601562 60.00226563 -24.05953125 59.00453125 -23.4140625 57.9765625 C-21.6875 55.375 -21.6875 55.375 -19.6875 53.375 C-19.17960938 53.71273437 -18.67171875 54.05046875 -18.1484375 54.3984375 C-11.32108611 58.82215207 -5.88809641 61.02584098 2.3125 60.375 C4.67543002 59.21867254 6.46233755 58.22516245 8.3125 56.375 C9.06592517 54.04984501 9.06592517 54.04984501 8.3125 51.375 C3.55383416 47.49037482 -1.37728305 45.74215597 -7.1875 43.9375 C-14.62766701 41.60638196 -20.59783952 38.74807601 -25.1875 32.25 C-27.95610257 26.67571535 -27.63678496 19.92888556 -26.0625 14.03515625 C-23.34523611 7.71509157 -18.20359334 3.85226512 -11.97265625 1.234375 C-7.91335293 0.17248828 -4.1799089 -0.00880815 0 0 Z " fill="#139334" transform="translate(595.6875,147.625)"/>
<path d="M0 0 C0 6.27 0 12.54 0 19 C-2.2275 18.9071875 -2.2275 18.9071875 -4.5 18.8125 C-10.81847875 18.83039937 -15.71277716 19.83315731 -20.375 24.25 C-24.00885358 30.39959837 -24.31806837 36.46272125 -24.4140625 43.43359375 C-24.43342865 44.31153091 -24.4527948 45.18946808 -24.4727478 46.0940094 C-24.53212738 48.8750767 -24.57876117 51.65618633 -24.625 54.4375 C-24.66321816 56.33269951 -24.70227208 58.22788236 -24.7421875 60.12304688 C-24.83935463 64.74860711 -24.91925232 69.37400793 -25 74 C-31.27 74 -37.54 74 -44 74 C-44 49.91 -44 25.82 -44 1 C-38.72 1 -33.44 1 -28 1 C-27.34 5.29 -26.68 9.58 -26 14 C-24.4840625 11.64875 -24.4840625 11.64875 -22.9375 9.25 C-16.29536146 -0.09133428 -11.29347852 -0.50757207 0 0 Z " fill="#119233" transform="translate(489,148)"/>
<path d="M0 0 C5.95878874 3.42911427 10.0857637 7.48385304 12.0703125 14.19140625 C13.29190992 22.46858504 12.07081922 29.40327877 7.0703125 36.19140625 C1.74634652 41.55992425 -3.8126489 43.73395752 -11.3046875 44.56640625 C-18.63252339 43.80835426 -24.8205279 40.41938352 -29.9296875 35.19140625 C-34.33425143 29.55191786 -34.59538928 23.51877386 -34.37890625 16.5390625 C-33.54553799 10.32865732 -30.57933259 6.51433456 -26.0546875 2.37890625 C-17.32576159 -3.73134188 -9.51086489 -4.75543245 0 0 Z " fill="#149436" transform="translate(291.9296875,239.80859375)"/>
<path d="M0 0 C5.88530986 3.61459976 9.22082139 8.34377884 11 15 C12.0758321 21.94216183 11.10945025 27.61857829 7.703125 33.765625 C4.37693446 38.12934287 -0.16738149 40.58369075 -5 43 C-20.21229553 44.30178568 -20.21229553 44.30178568 -26.42578125 39.4765625 C-32.70744655 33.58457867 -35.27816511 27.96261486 -36.5 19.5625 C-35.44532005 12.04790536 -31.85469748 5.78730175 -25.81640625 1.18359375 C-17.26369817 -4.38946119 -8.99509515 -4.27105237 0 0 Z " fill="#149436" transform="translate(201,240)"/>
<path d="M0 0 C0.89589844 0.00322266 1.79179688 0.00644531 2.71484375 0.00976562 C4.12056641 0.02233398 4.12056641 0.02233398 5.5546875 0.03515625 C6.49957031 0.03966797 7.44445312 0.04417969 8.41796875 0.04882812 C10.75527137 0.06063268 13.09244811 0.07709866 15.4296875 0.09765625 C15.21944736 10.83901611 15.21944736 10.83901611 12.1796875 14.66015625 C7.74804048 18.58820702 4.40010217 19.51357932 -1.57421875 19.35546875 C-4.68669296 18.95346621 -6.95395752 17.77959874 -9.5703125 16.09765625 C-12.07062904 12.34718143 -12.10634804 10.53909359 -11.5703125 6.09765625 C-7.91654355 1.67467279 -5.63610998 -0.03567158 0 0 Z " fill="#FAFCFA" transform="translate(861.5703125,189.90234375)"/>
<path d="M0 0 C3.95682724 1.94370461 6.88149137 4.09748411 9 8 C9.495 11.465 9.495 11.465 10 15 C-0.89 15 -11.78 15 -23 15 C-21.86814891 8.20889349 -21.86814891 8.20889349 -19.1875 5.25 C-18.68605469 4.67765625 -18.18460938 4.1053125 -17.66796875 3.515625 C-12.57159862 -1.1152687 -6.54675846 -0.71865354 0 0 Z " fill="#F7FBF8" transform="translate(533,164)"/>
<path d="M0 0 C21.78 0 43.56 0 66 0 C65.34 1.32 64.68 2.64 64 4 C63.505 3.01 63.505 3.01 63 2 C41.88 2 20.76 2 -1 2 C-0.67 1.34 -0.34 0.68 0 0 Z " fill="#048C25" transform="translate(146,58)"/>
<path d="M0 0 C12.21 0 24.42 0 37 0 C37 5.94 37 11.88 37 18 C25.12 17.67 13.24 17.34 1 17 C1 16.67 1 16.34 1 16 C12.22 16 23.44 16 35 16 C35 11.05 35 6.1 35 1 C23.45 1 11.9 1 0 1 C0 0.67 0 0.34 0 0 Z " fill="#048317" transform="translate(398,163)"/>
<path d="M0 0 C6.27 0 12.54 0 19 0 C20.683989 4.2099725 21.24059853 5.78952566 21 10 C19 7 19 7 18 3 C12.06 3 6.12 3 0 3 C0 2.01 0 1.02 0 0 Z " fill="#178E2D" transform="translate(703,119)"/>
<path d="M0 0 C0.33 0.66 0.66 1.32 1 2 C-0.109375 4.390625 -0.109375 4.390625 -1.75 7.25 C-2.58144531 8.72146484 -2.58144531 8.72146484 -3.4296875 10.22265625 C-4.20699219 11.59744141 -4.20699219 11.59744141 -5 13 C-6.03284111 14.98652286 -7.02048805 16.98655877 -8 19 C-9 16 -9 16 -7.3828125 12.4609375 C-6.64047576 11.09333505 -5.88740383 9.73151785 -5.125 8.375 C-4.55845703 7.33472656 -4.55845703 7.33472656 -3.98046875 6.2734375 C-1.19118642 1.19118642 -1.19118642 1.19118642 0 0 Z " fill="#FB8A0F" transform="translate(231,125)"/>
<path d="M0 0 C0.33 0 0.66 0 1 0 C1.33 2.31 1.66 4.62 2 7 C2.66 7 3.32 7 4 7 C3.34 8.98 2.68 10.96 2 13 C1.34 12.67 0.68 12.34 0 12 C0 8.04 0 4.08 0 0 Z " fill="#FA850E" transform="translate(205,135)"/>
<path d="M0 0 C1.32 0 2.64 0 4 0 C3.49396008 2.16874252 3.00016187 3.99967627 2 6 C0.68 5.34 -0.64 4.68 -2 4 C-1.34 3.67 -0.68 3.34 0 3 C0 2.01 0 1.02 0 0 Z " fill="#138D2A" transform="translate(612,163)"/>
<path d="M0 0 C0.66 0.33 1.32 0.66 2 1 C-0.97 3.64 -3.94 6.28 -7 9 C-7.33 8.01 -7.66 7.02 -8 6 C-5.36 4.02 -2.72 2.04 0 0 Z " fill="#FDEDD5" transform="translate(286,58)"/>
</svg>
