<svg width="167" height="156" viewBox="0 0 167 156" fill="none" xmlns="http://www.w3.org/2000/svg">
<path d="M29.625 11.4374C30.6936 11.3878 31.7623 11.3382 32.8633 11.287C38.4222 11.2152 42.2073 11.5117 46.6172 15.0859C49.9072 18.4602 51.4101 21.5606 52.5 26.1874C52.7991 27.3772 53.0981 28.567 53.4062 29.7929C54 32.9999 54 32.9999 54 36.9999C65.55 36.9999 77.1 36.9999 89 36.9999C87.1321 40.7356 85.0722 44.3736 83 47.9999C74.42 47.9999 65.84 47.9999 57 47.9999C57.66 49.6499 58.32 51.2999 59 52.9999C59.434 54.7131 59.8272 56.4369 60.1836 58.1679C60.3892 59.1444 60.5948 60.1208 60.8066 61.1269C61.0148 62.1369 61.223 63.1468 61.4375 64.1874C62.8069 70.827 64.282 77.3043 66.4338 83.7394C67 85.9999 67 85.9999 67 90.9999C101.65 90.5049 101.65 90.5049 137 89.9999C139.433 82.7218 139.433 82.7218 141.719 75.4062C142.011 74.4381 142.304 73.47 142.605 72.4726C143.048 71.0011 143.048 71.0011 143.5 69.4999C145.567 62.6297 147.697 55.7953 150 48.9999C147.69 48.9999 145.38 48.9999 143 48.9999C143.99 45.0399 144.98 41.0799 146 36.9999C152.092 36.5798 155.119 36.9328 160 40.9999C162.376 44.5634 162.508 46.8905 162 50.9999C161.145 54.6656 160.025 58.2298 158.875 61.8124C158.557 62.8198 158.24 63.8272 157.912 64.8652C157.261 66.9227 156.605 68.9789 155.945 71.0336C155.074 73.7691 154.236 76.5123 153.41 79.2616C152.92 80.8414 152.43 82.4209 151.938 83.9999C151.729 84.71 151.521 85.42 151.306 86.1515C149.254 92.5403 146.023 97.1817 140.228 100.667C134.203 103.07 127.48 102.484 121.098 102.512C119.65 102.529 118.203 102.547 116.756 102.566C112.966 102.613 109.177 102.643 105.388 102.669C101.513 102.699 97.6384 102.746 93.7637 102.791C86.1759 102.877 78.5881 102.944 71 103C71.66 105.31 72.32 107.62 73 110C73.8224 110.008 74.6448 110.016 75.4922 110.024C83.2324 110.102 90.9724 110.19 98.7124 110.287C102.692 110.337 106.671 110.384 110.651 110.422C114.489 110.459 118.328 110.505 122.166 110.558C123.633 110.577 125.099 110.592 126.566 110.603C128.615 110.62 130.665 110.649 132.714 110.681C133.882 110.694 135.05 110.708 136.254 110.721C139 111 139 111 141 113C141.25 116 141.25 116 141 119C138.218 121.782 136.524 121.265 132.626 121.29C131.972 121.297 131.318 121.304 130.644 121.311C128.476 121.33 126.309 121.334 124.141 121.336C122.633 121.342 121.126 121.349 119.619 121.356C116.454 121.368 113.29 121.372 110.126 121.371C106.08 121.37 102.034 121.398 97.9875 121.432C94.8715 121.454 91.7558 121.458 88.6398 121.457C87.1487 121.46 85.6576 121.468 84.1666 121.484C82.0744 121.504 79.9838 121.498 77.8916 121.486C76.7029 121.489 75.5143 121.491 74.2896 121.494C69.3181 120.747 66.2597 118.264 62.7734 114.766C60.5295 111.266 59.5707 107.746 58.625 103.75C58.42 102.927 58.2151 102.104 58.0039 101.257C57.5593 99.4601 57.121 97.6621 56.6885 95.8627C55.98 92.9168 55.2528 89.9759 54.5234 87.0351C51.9278 76.479 49.5299 65.9048 47.375 55.2499C45.6978 46.9645 43.6936 39.0185 41 30.9999C40.5953 29.5858 40.1978 28.1695 39.8125 26.7499C39.2712 24.1118 39.2712 24.1118 38 22.9999C36.5362 22.8674 35.0668 22.7967 33.5977 22.7538C32.2625 22.7045 32.2625 22.7045 30.9004 22.6542C29.0125 22.5932 27.1245 22.5358 25.2363 22.4823C24.3449 22.4482 23.4536 22.414 22.5352 22.3788C21.7141 22.3538 20.8931 22.3287 20.0471 22.3029C18 21.9999 18 21.9999 16 19.9999C15.75 16.9999 15.75 16.9999 16 13.9999C19.5456 10.4543 24.8231 11.5026 29.625 11.4374Z" fill="#F4F9F5"/>
<path d="M143 24.0004C135.014 59.6489 135.014 59.6489 124 72.0004C123.34 72.0004 122.68 72.0004 122 72.0004C122 72.6604 122 73.3204 122 74.0004C121.34 74.0004 120.68 74.0004 120 74.0004C120 74.6604 120 75.3204 120 76.0004C110.417 81.7318 102.175 84.3946 91 85.0004C91.4773 79.1742 93.1926 75.1137 96.0625 70.0629C96.4396 69.379 96.8166 68.6952 97.2051 67.9906C98.127 66.3218 99.0622 64.6603 100 63.0004C100.66 63.0004 101.32 63.0004 102 63.0004C102.289 62.2373 102.578 61.4741 102.875 60.6879C104 58.0004 104 58.0004 106 55.0004C106.66 55.0004 107.32 55.0004 108 55.0004C108.336 54.1573 108.336 54.1573 108.68 53.2973C110.387 50.3276 112.548 48.4969 115.125 46.2504C116.035 45.4512 116.945 44.6519 117.883 43.8285C118.581 43.2252 119.28 42.6219 120 42.0004C118.68 42.3304 117.36 42.6604 116 43.0004C116 43.6604 116 44.3204 116 45.0004C114.566 46.222 113.075 47.3771 111.563 48.5004C99.8402 57.7096 91.6354 69.2576 86 83.0004C85.34 83.0004 84.68 83.0004 84 83.0004C83.5241 67.1382 83.8765 52.8645 95.2617 40.5551C108.486 27.9741 125.164 23.9136 143 24.0004Z" fill="#F98E17"/>
<path d="M126 126C129.011 127.276 129.81 128.317 132 131C133.364 135.263 133.509 138.698 131.875 142.875C128.688 146.488 126.329 147.858 121.5 148.375C117.715 147.97 115.947 147.374 113 145C110.676 142.116 110.036 140.244 109.5 136.563C110.164 131.834 111.657 130.343 115 127C118.502 125.249 122.178 125.455 126 126Z" fill="#F2F9F4"/>
<path d="M80 126C85.5 129 85.5 129 87 132C87.168 134.023 87.168 134.023 87.1875 136.375C87.2017 137.146 87.2159 137.916 87.2305 138.711C86.972 141.278 86.3795 142.828 85 145C80.627 147.847 77.1792 148.74 72 148C69.032 146.203 66.576 144.152 65 141C64.832 138.941 64.832 138.941 64.8125 136.562C64.7983 135.78 64.7841 134.997 64.7695 134.191C65 132 65 132 67 129C67.66 129 68.32 129 69 129C69 128.34 69 127.68 69 127C72.722 125.759 76.1337 125.453 80 126Z" fill="#F5FAF7"/>
<path d="M105 57C105.33 57.66 105.66 58.32 106 59C105.017 61.0085 104.016 63.0082 103 65C103 65.99 103 66.98 103 68C102.67 68.99 102.34 69.98 102 71C101.763 71.7348 101.526 72.4695 101.281 73.2266C101.023 74.018 100.766 74.8095 100.5 75.625C100.242 76.4216 99.9844 77.2183 99.7188 78.0391C99 80 99 80 98 81C99.98 81.33 101.96 81.66 104 82C101.411 84.5893 99.9729 84.374 96.375 84.625C95.3721 84.6998 94.3692 84.7745 93.3359 84.8516C92.1796 84.925 92.1796 84.925 91 85C91.4773 79.1738 93.1926 75.1134 96.0625 70.0625C96.4396 69.3787 96.8166 68.6948 97.2051 67.9902C98.127 66.3214 99.0622 64.6599 100 63C100.66 63 101.32 63 102 63C102.309 62.1956 102.619 61.3913 102.938 60.5625C104 58 104 58 105 57Z" fill="#EC8F1C"/>
<path d="M86 57C86.8406 60.0977 87.0893 62.7833 87 66C89.64 65.67 92.28 65.34 95 65C94.6017 65.7129 94.2033 66.4257 93.7929 67.1602C90.9188 72.3561 88.2058 77.4855 86 83C85.34 83 84.68 83 84 83C83.9455 80.1664 83.9061 77.3339 83.875 74.5C83.8582 73.7085 83.8415 72.917 83.8242 72.1016C83.7801 66.72 84.494 62.17 86 57Z" fill="#DC8D1F"/>
<path d="M136 24C138.31 24 140.62 24 143 24C135.494 57.5058 135.494 57.5058 130 63C130.75 55.25 130.75 55.25 133 53C135.22 47.9376 136.364 43.5901 136.691 38.0781C137.04 35.7304 137.935 34.1051 139 32C139 31.01 139 30.02 139 29C138.34 29 137.68 29 137 29C136.67 27.35 136.34 25.7 136 24Z" fill="#E7911E"/>
<path d="M121 40C121.33 40.66 121.66 41.32 122 42C121.241 42.6033 120.481 43.2066 119.699 43.8281C118.705 44.6273 117.711 45.4266 116.688 46.25C115.701 47.0389 114.715 47.8278 113.699 48.6406C111.39 50.6592 109.812 52.5686 108 55C107.34 55 106.68 55 106 55C105.01 57.475 105.01 57.475 104 60C103.01 60 102.02 60 101 60C101 57 101 57 102.574 55.0977C113.06 45 113.06 45 116 45C116 44.34 116 43.68 116 43C118.5 41.375 118.5 41.375 121 40Z" fill="#483A20"/>
<path d="M138 39C139.323 42.9705 138.08 45.5307 136.75 49.3125C136.532 49.9641 136.314 50.6157 136.09 51.2871C134.692 55.3702 133.017 59.1733 131 63C130.67 63 130.34 63 130 63C130.75 55.25 130.75 55.25 133 53C133.937 50.6315 134.805 48.283 135.625 45.875C135.854 45.2163 136.084 44.5576 136.32 43.8789C136.885 42.2544 137.443 40.6274 138 39Z" fill="#D38F24"/>
<path d="M146 37C148.64 37 151.28 37 154 37C154 37.33 154 37.66 154 38C151.69 38 149.38 38 147 38C147.021 39.1137 147.041 40.2275 147.062 41.375C147 45 147 45 146 47C147.65 47.33 149.3 47.66 151 48C150.67 48.66 150.34 49.32 150 50C147.69 49.67 145.38 49.34 143 49C143.99 45.04 144.98 41.08 146 37Z" fill="#A5BEAE"/>
<path d="M99 37C99.66 37.33 100.32 37.66 101 38C99.7621 41.7137 98.1478 42.7735 95 45C94.34 45 93.68 45 93 45C93 45.99 93 46.98 93 48C92.34 48 91.68 48 91 48C91 48.99 91 49.98 91 51C90.34 51 89.68 51 89 51C90.612 45.2684 94.8789 41.1211 99 37Z" fill="#DD8F23"/>
<path d="M131.25 24.9379C132.142 24.947 133.034 24.956 133.953 24.9653C134.629 24.9769 135.304 24.9885 136 25.0004C133.688 27.0629 133.688 27.0629 131 29.0004C130.01 28.6704 129.02 28.3404 128 28.0004C126.272 27.9324 124.542 27.9155 122.812 27.9379C121.911 27.947 121.01 27.956 120.082 27.9653C119.051 27.9827 119.051 27.9827 118 28.0004C122.527 25.5752 126.122 24.8705 131.25 24.9379Z" fill="#CF8A1F"/>
<path d="M69 127C69.66 127.33 70.32 127.66 71 128C70.2884 128.928 70.2884 128.928 69.5625 129.875C67.4195 134.161 67.2666 138.266 67 143C65 141 65 141 64.7344 138.941C64.7395 138.156 64.7447 137.371 64.75 136.562C64.7448 135.78 64.7397 134.998 64.7344 134.191C65 132 65 132 67 129C67.66 129 68.32 129 69 129C69 128.34 69 127.68 69 127Z" fill="#D1E7DA"/>
<path d="M151 80C152.236 83.7078 151.568 84.6751 150.063 88.1875C149.682 89.0886 149.302 89.9896 148.91 90.918C148.46 91.9486 148.46 91.9486 148 93C147.07 90.4486 146.914 89.2599 147.777 86.6406C148.16 85.8517 148.543 85.0628 148.938 84.25C149.318 83.4508 149.698 82.6516 150.09 81.8281C150.39 81.2248 150.691 80.6216 151 80Z" fill="#D8ECDE"/>
<path d="M92 78C92.33 78 92.66 78 93 78C93 79.65 93 81.3 93 83C95.97 83 98.94 83 102 83C102 83.33 102 83.66 102 84C98.37 84.33 94.74 84.66 91 85C91.33 82.69 91.66 80.38 92 78Z" fill="#B18029"/>
<path d="M150 50C150.33 50 150.66 50 151 50C151.75 52.625 151.75 52.625 152 56C150.062 59.375 150.062 59.375 148 62C146.876 58.6956 147.104 56.9493 148.437 53.75C148.725 53.0436 149.012 52.3372 149.309 51.6094C149.537 51.0783 149.765 50.5472 150 50Z" fill="#D8EADD"/>
<path d="M50.9999 26C53.4212 28.4213 53.5283 29.8011 54.1249 33.125C54.2925 34.0351 54.4601 34.9452 54.6327 35.8828C54.8145 36.9308 54.8145 36.9308 54.9999 38C54.3399 38 53.6799 38 52.9999 38C51.4085 33.8226 50.7871 30.4684 50.9999 26Z" fill="#D9EDDE"/>
<path d="M111 30C111.66 30.33 112.32 30.66 113 31C111.68 31.33 110.36 31.66 109 32C109 32.66 109 33.32 109 34C106 36 106 36 103.812 35.625C103.214 35.4188 102.616 35.2125 102 35C103.453 34.1362 104.912 33.2842 106.375 32.4375C107.593 31.724 107.593 31.724 108.836 30.9961C109.55 30.6674 110.264 30.3387 111 30Z" fill="#C58B23"/>
<path d="M102 58C102.33 58.99 102.66 59.98 103 61C102.67 61.66 102.34 62.32 102 63C100.062 63.5625 100.062 63.5625 98 64C97.01 64.495 97.01 64.495 96 65C97.3933 61.6328 98.9789 60.014 102 58Z" fill="#2F2F24"/>
</svg>
